PathFileType	4	(X/Y/Z)	C:/Users/beibeiliu/ov580/test_trc/capture2\sequence.25_training_dense_right.trc
DataRate	CameraRate	NumFrames	NumMarkers	Units	OrigDataRate	OrigDataStartFrame	OrigNumFrames
120	120	23	19	mm	120	86	343
Frame#	Time	ThumbCMC			ThumbMCP			ThumbIP			ThumbTip			IndexMCP			IndexPIP			IndexTip			MiddleMCP			MiddlePIP			MiddleTip			RingMCP			RingPIP			RingTip			PinkyMCP			PinkyPIP			PinkyTip			BackHand1			BackHand2			BackHand3	
		X0	Y0	Z0	X1	Y1	Z1	X2	Y2	Z2	X3	Y3	Z3	X4	Y4	Z4	X5	Y5	Z5	X6	Y6	Z6	X7	Y7	Z7	X8	Y8	Z8	X9	Y9	Z9	X10	Y10	Z10	X11	Y11	Z11	X12	Y12	Z12	X13	Y13	Z13	X14	Y14	Z14	X15	Y15	Z15	X16	Y16	Z16	X17	Y17	Z17	X18	Y18	Z18	
85	0.708333	146.264	18.5348	19.5091	148.26	0.397503	-3.01114	152.222	-4.93501	-29.4265	154.466	-11.5248	-50.8675	167.81	17.6122	-45.0918	185.463	-7.48975	-37.6809	177.448	2.12091	-4.54478	188.283	21.2271	-41.5918	201.017	-0.44314	-25.778	180.936	11.2711	7.71123	207.503	33.3397	-36.7631	212.13	8.00421	-24.2911	195.819	15.5529	6.7626	217.913	60.2856	-29.8593	230.716	57.8752	-42.8461	242.466	59.3495	-65.7224	178.413	67.8457	3.82484	175.164	69.1858	35.6189	152.983	54.8197	15.3751	
86	0.716667	142.547	19.2636	19.5871	143.102	-0.146156	-1.16001	145.143	-6.04525	-31.131	150.076	-11.186	-49.9346	166.632	15.9923	-46.9532	181.414	-6.58887	-39.243	175.461	4.49241	-3.75149	187.57	23.6549	-41.0235	197.197	-2.972	-23.6986	177.526	10.4993	6.41681	206.026	29.9919	-37.7005	207.198	4.43668	-22.1516	188.373	13.4749	4.22315	216.829	56.7442	-29.1987	228.643	52.9547	-46.2887	240.177	56.2274	-63.5826	181.066	67.1601	1.99011	175.394	72.0607	33.64	151.612	56.2513	11.3989	
87	0.725	140.602	22.2998	23.0283	139.976	5.02814	-4.34728	140.201	-3.90301	-31.0931	146.89	-7.07503	-53.4714	164.601	18.2033	-46.5439	176.201	-7.32446	-39.3189	169.973	-2.63189	-5.71419	184.154	20.1022	-41.8519	188.827	-5.09961	-25.8479	177.614	8.45138	6.31942	201.384	27.8452	-38.1395	205.559	2.3581	-21.2579	187.689	11.022	4.55609	218.755	53.7135	-29.1569	228.493	47.0502	-46.0895	244.06	48.6204	-66.1321	182.915	69.1103	4.03511	177.973	69.0048	31.9995	152.741	56.8711	15.1331	
88	0.733333	137.068	26.4219	24.6087	131.683	7.07157	-1.62301	134.559	1.08381	-26.8597	142.412	-3.12297	-50.3268	159.846	20.072	-45.1877	169.513	-9.07904	-36.0897	161.751	0.71473	-4.49175	182.817	19.3089	-41.2937	184.33	-6.93052	-26.3453	169.519	7.71865	6.61969	194.898	21.6725	-38.2448	195.388	-2.98757	-20.9285	183.02	12.3188	7.94938	214.528	47.3238	-29.9183	228.66	39.3597	-48.456	241.104	35.9404	-70.6775	183.486	63.7189	-0.192348	178.684	67.9811	29.7616	152.273	59.5895	12.8122	
89	0.741667	134.563	31.925	20.1705	127.52	12.7919	0.282584	125.435	4.6857	-27.6632	132.094	-1.201	-46.2165	152.237	19.2998	-44.1267	154.243	-9.52434	-38.0548	157.388	2.69392	-2.89132	175.386	17.2322	-39.685	171.342	-10.6373	-23.2326	161.232	10.0745	6.04224	189.743	15.8898	-38.0241	189.11	-7.45138	-21.214	174.311	7.09105	5.60879	215.491	37.7391	-30.9355	221.362	28.8064	-47.9066	233.735	22.7552	-68.1956	188.212	61.4468	2.9462	185.531	65.5477	30.1449	152.813	61.8266	9.96765	
90	0.75	130.569	36.398	23.1392	120.936	18.7644	-1.56675	118.792	10.4844	-28.9449	120.523	1.84449	-48.6896	143.795	19.2377	-45.1876	147.86	-8.08661	-35.959	147.069	2.4007	-4.12612	169.413	15.9747	-39.5789	160.899	-11.2994	-23.1682	156.596	8.02264	6.7388	186.834	12.6233	-36.2055	175.955	-11.3601	-16.8212	169.248	9.48872	8.1127	209.786	28.8681	-30.6732	219.232	16.3634	-49.1616	224.121	7.15928	-68.506	187.046	56.5874	-1.57733	183.356	63.0446	33.1017	153.975	63.7398	10.0178	
91	0.758333	132.698	41.6325	22.7671	116.853	25.9153	-1.53449	114.068	16.2943	-21.9396	111.223	9.05949	-45.3388	142.381	21.3521	-44.0365	135.241	-6.34137	-31.4828	139.859	8.45852	-3.11596	161.83	12.5727	-39.2254	150.503	-11.2315	-18.5427	150.155	12.6356	7.54339	177.192	6.95756	-36.6048	166.9	-14.7975	-14.0452	161.336	6.93776	7.65213	207.738	19.4304	-30.7493	209.172	4.74952	-51.4498	212.809	-6.00501	-69.2043	189.666	52.3989	-2.46171	189.004	59.1225	30.8986	157.446	63.5684	12.8978	
92	0.766667	130.326	47.2926	20.8201	117.661	32.3864	1.01015	106.76	25.7491	-22.7668	108.518	17.7744	-44.5156	134.427	25.5863	-43.1791	124.243	-1.42555	-30.7239	134.222	13.4381	-2.5944	154.165	12.6854	-39.6104	137.977	-7.57333	-19.6084	146.576	12.1221	8.1013	167.714	4.76348	-35.6396	155.505	-15.7345	-18.0358	157.049	9.88717	10.6943	199.809	9.58615	-34.9419	197.899	-1.68285	-48.3021	198.341	-17.4646	-70.9712	190.608	46.5524	-1.27794	192.208	53.3273	31.6281	160.869	61.9347	12.3598	
93	0.775	131.58	53.3984	21.6617	111.909	41.9573	2.05152	105.274	36.2116	-26.5779	98.4136	29.9058	-45.508	131.656	30.7679	-43.0864	114.457	6.96493	-32.9488	129.638	19.2103	-2.39184	146.861	17.0021	-39.4819	130.455	-5.23341	-17.153	138.492	19.0932	7.95279	159.52	2.5006	-35.3125	143.382	-12.7227	-17.7191	143.964	7.40692	8.14087	189.834	3.20663	-33.1444	188.081	-11.2739	-49.1443	183.148	-26.6321	-69.7609	191.233	39.2846	-2.84422	188.483	49.0538	32.192	164.659	63.574	8.26778	
94	0.783333	132.726	56.9646	25.1843	111.306	50.3794	4.38904	101.725	46.1932	-25.4838	98.3602	37.7883	-47.4109	129.42	32.1214	-42.652	109.75	12.6954	-28.9403	120.136	26.246	-1.11816	140.431	16.4859	-39.1643	120.101	1.52172	-17.0683	133.736	23.2276	9.1266	151.946	1.14583	-35.8758	133.044	-10.8563	-16.1446	138.966	8.25711	11.2987	178.827	0.379317	-30.6321	173.042	-14.6123	-48.8245	166.748	-31.6912	-70.8093	187.41	32.908	-1.7431	189.66	40.5703	26.7055	166.338	64.1037	12.0396	
95	0.791667	131.708	63.4147	22.2805	110.385	59.6214	2.6564	101.054	54.4585	-27.4407	98.7799	46.547	-45.1204	125.538	40.605	-42.0687	103.734	21.0507	-28.8907	117.036	32.4432	-1.44385	137.565	17.9617	-37.9031	111.193	7.77806	-18.9635	127.833	24.2819	9.75672	144.46	5.45397	-35.4898	121.606	-4.57736	-17.4384	130.777	12.949	10.5709	169.51	-3.51506	-32.745	160.379	-19.4937	-49.5745	152.652	-32.4517	-66.8427	183.74	31.966	-2.17578	188.1	37.4053	27.0855	168.795	58.5339	7.75894	
96	0.8	133.652	69.1006	21.3901	115.226	63.1674	-0.362408	103.89	63.2506	-23.3107	97.491	57.5889	-46.042	121.749	47.0693	-42.342	97.1261	33.9682	-30.6023	116.204	35.6627	-1.04066	125.482	24.1021	-39.5374	105.029	13.9341	-18.1246	119.851	30.1104	9.39593	137.368	6.39199	-34.257	111.651	3.46251	-13.2957	124.256	22.8602	9.83471	161.872	-8.05462	-30.9881	146.465	-15.2104	-50.5408	141.73	-28.9569	-67.1378	178.415	29.0763	-0.64458	183.462	35.4373	26.1025	169.211	59.5812	11.6243	
97	0.808333	135.885	74.1232	21.2586	118.598	72.0114	0.914192	105.455	77.1103	-23.3533	100.426	68.2384	-46.3684	122.378	51.6186	-42.3571	96.4065	43.6521	-28.6878	114.557	45.42	-0.770797	120.873	31.906	-40.4903	97.854	28.7024	-20.593	118.133	38.8094	9.92029	124.968	12.3262	-34.9564	103.901	10.3931	-15.0838	120.244	24.7104	11.7329	149.184	-2.92083	-32.0164	135.082	-15.5411	-50.3693	126.009	-25.1474	-70.4928	173.377	23.6078	-2.79145	181.003	30.8559	25.5755	169.066	58.7618	9.07338	
98	0.816667	140.378	78.7566	24.9797	121.004	82.92	3.89872	112.451	83.4861	-22.2996	104.013	81.7859	-47.5187	122.487	58.8725	-41.6576	95.5066	54.1252	-28.5521	113.322	57.4525	1.46056	118.297	37.705	-39.8209	93.2621	40.153	-17.5797	111.844	47.9567	9.4048	120.959	19.6744	-33.7697	96.5238	23.7062	-16.0446	113.334	33.8353	10.612	139.374	-3.19229	-29.7451	123.981	-3.11819	-52.2554	112.553	-11.504	-70.4507	166.958	24.9647	-0.150879	175.341	26.2999	29.9183	168.44	58.1984	7.81297	
99	0.825	145.699	82.2671	23.8433	126.599	88.3143	3.73095	118.071	93.5897	-24.4257	109.852	94.3833	-47.3863	123.756	70.7823	-39.6778	96.3341	71.9517	-29.063	114.554	65.172	1.35694	115.791	50.7684	-39.2016	91.7961	54.2966	-19.804	111.688	58.4663	10.6516	112.267	30.873	-33.3798	90.5157	37.3109	-12.4204	110.852	41.6947	12.7628	127.704	3.53833	-32.2661	113.009	1.27243	-50.0304	103.509	0.580912	-72.3204	158.239	22.6043	-1.61142	168.466	22.1072	29.7532	167.585	55.7237	10.7611	
100	0.833333	149.086	83.2871	25.9381	132.973	97.5738	4.81674	124.123	104.222	-19.2335	116.865	99.9367	-44.2446	125.159	75.4238	-39.1625	98.2783	83.9203	-25.0812	112.56	73.2313	1.631	114.882	57.5621	-36.4229	91.0967	66.6852	-16.676	110.965	65.9232	11.8201	109.139	39.8929	-32.4631	87.7645	54.1206	-12.7475	111.787	53.2306	14.1053	119.237	14.3537	-28.7488	107.114	16.4506	-47.765	92.7131	12.9414	-70.2751	152.522	26.9867	1.12832	160.223	21.9731	29.9694	168.176	53.416	11.4713	
101	0.841667	152.553	88.0996	24.669	136.664	99.2068	4.91131	130.717	111.063	-21.3807	123.355	113.67	-39.0695	127.548	87.5655	-37.7577	102.681	96.0848	-24.4711	117.68	81.2578	4.50472	113.386	67.5484	-36.1036	93.6314	80.2014	-17.8567	114.974	74.3615	14.3912	107.456	53.5914	-31.7913	88.0459	66.2261	-11.3962	109.47	63.5818	14.9467	113.311	25.836	-27.1971	98.6177	29.1256	-48.1917	87.6433	28.4924	-70.0917	147.216	28.2069	4.71646	155.199	27.3311	32.606	165.475	52.939	12.8134	
102	0.85	152.354	87.3159	28.7321	140.604	105.808	9.20084	134.946	117.169	-18.0035	126.725	117.953	-35.0105	130.203	90.2887	-35.0684	104.082	101.781	-23.2317	117.486	87.4575	5.88397	115.198	73.4017	-34.2976	93.1608	87.7776	-13.3702	115.658	76.4644	16.6851	105.638	58.2208	-29.0083	87.7928	75.3913	-10.1389	107.825	70.1638	17.2973	107.937	33.9563	-30.516	94.2649	38.6851	-46.3855	82.2464	40.2477	-66.8834	144.017	32.9107	-0.21668	151.784	26.9543	33.6264	163.532	54.1166	14.9378	
103	0.858333	155.571	91.8741	32.4198	143.819	107.985	11.6838	138.855	117.643	-13.449	132.165	122.741	-38.3293	127.781	94.9478	-34.4935	107.049	110.078	-18.0747	121.396	95.8607	8.67348	113.525	78.2205	-31.7536	96.5669	96.9095	-11.115	115.656	86.6886	16.7284	103.471	68.3179	-28.6746	87.3886	81.907	-8.45318	106.746	74.244	18.572	102.874	39.7273	-30.8992	92.7846	47.621	-44.9777	80.8186	51.4698	-65.9454	139.762	34.034	1.27792	149.087	30.3404	32.5804	164.854	59.2585	16.2565	
104	0.866667	153.749	89.8123	34.7218	149.23	112.903	11.9536	143.079	119.614	-13.0584	136.51	124.379	-33.0321	134.157	101.664	-31.8146	109.659	117.594	-16.6188	119.608	98.1194	8.94606	115.734	89.2852	-31.3922	96.4449	101.659	-9.4279	115.436	87.8267	18.79	102.063	72.9178	-27.5087	89.8704	91.6285	-5.29446	107.538	76.5789	20.1524	102.128	45.5214	-27.8167	88.7945	54.7613	-44.2158	77.9781	63.9537	-67.6718	138.756	37.1133	4.97524	144.029	31.8714	34.8883	159.298	57.8924	18.7875	
105	0.875	156.719	91.8249	34.7812	151.853	114.288	14.1381	148.159	124.597	-12.8192	141.057	127.309	-34.3436	133.728	105.969	-30.6831	112.89	121.626	-16.5903	119.545	105.396	10.8582	115.895	92.142	-28.7843	98.6354	107.249	-9.5844	118.279	92.1499	19.7721	102.98	81.9048	-26.2393	92.3372	97.8304	-3.33094	108.35	85.5718	20.7432	100.532	52.4071	-27.4971	88.4236	65.1929	-45.3563	77.7463	71.2308	-63.7328	135.458	41.6809	3.11866	143.632	35.6672	33.7889	160.156	62.665	17.2754	
106	0.883333	160.952	95.5133	38.0713	156.204	115.727	17.5211	152.604	125.114	-10.2418	145.84	129.614	-28.5372	134.25	106.461	-28.3642	114.531	122.991	-16.8253	121.518	106.659	14.0503	115.364	95.2921	-26.5485	100.751	111.63	-3.97916	122.435	92.4911	22.6431	104.898	85.6789	-24.9328	93.045	101.704	-3.61141	110.37	90.1688	21.2073	98.875	56.1936	-24.4546	85.5444	69.6726	-43.695	76.2152	75.3979	-60.7782	132.335	40.5511	3.89616	138.565	34.0849	35.8777	159.87	61.8578	17.8762	
107	0.891667	161.12	96.4455	40.4965	154.894	114.39	18.0845	154.616	126.055	-8.71021	150.627	133.69	-29.1121	139.825	110.162	-26.9763	119.971	130.834	-11.8586	126.182	110.331	16.9903	119.091	101.545	-26.2002	105.756	117.231	-3.59118	118.504	96.7261	23.1883	107.203	88.9506	-23.2273	92.6132	104.879	0.845172	111.748	92.3585	22.0983	98.7191	62.6865	-26.4366	90.3361	73.2588	-40.1544	81.8773	85.079	-61.8217	130.854	44.6061	6.09125	139.179	39.1487	33.9661	160.02	62.92	21.8365	
